<svg width="18" height="18" viewBox="0 0 18 18" fill="none" xmlns="http://www.w3.org/2000/svg">
<g clip-path="url(#clip0_0_358)">
<path d="M3.54079 9.66078C3.08104 10.5645 3.60304 10.9965 4.79404 11.7345C5.80654 12.36 7.20529 12.5888 8.10379 12.6803C7.73554 13.0343 9.42304 11.4113 4.56304 16.086C3.53254 17.0738 5.19154 18.6585 6.22129 17.6918L9.00904 15.003C10.0763 16.0298 11.0993 17.0138 11.7968 17.6955C12.8273 18.666 14.4855 17.0948 13.4663 16.0898C13.3898 16.017 9.68854 12.4665 9.91429 12.684C10.824 12.5925 12.2018 12.3503 13.2023 11.7383L13.2015 11.7375C14.3925 10.9958 14.9145 10.5645 14.4615 9.66078C14.1878 9.14778 13.4498 8.71879 12.4673 9.46053C12.4673 9.46053 11.1405 10.4768 9.00079 10.4768C6.86029 10.4768 5.53429 9.46053 5.53429 9.46053C4.55254 8.71504 3.81154 9.14778 3.54079 9.66078Z" fill="#E08641"/>
<path d="M9.00103 9.1065C11.6095 9.1065 13.7395 7.068 13.7395 4.5585C13.7395 2.0385 11.6095 0 9.00103 0C6.39178 0 4.26178 2.0385 4.26178 4.5585C4.26178 7.068 6.39178 9.1065 9.00103 9.1065ZM9.00103 2.30925C10.2828 2.30925 11.3283 3.315 11.3283 4.5585C11.3283 5.7915 10.2828 6.79725 9.00103 6.79725C7.71928 6.79725 6.67378 5.7915 6.67378 4.5585C6.67303 3.31425 7.71853 2.30925 9.00103 2.30925Z" fill="#E08641"/>
</g>
<defs>
<clipPath id="clip0_0_358">
<rect width="18" height="18" fill="white"/>
</clipPath>
</defs>
</svg>
